<svg width="142" height="280" viewBox="0 0 142 280" fill="none" xmlns="http://www.w3.org/2000/svg">
<g filter="url(#filter0_i_5675_5)">
<path d="M11.4565 48.978C17.9261 49.5264 55 22 74 0C78.7174 4.7993 91.5174 10.9949 90.9783 15.3828C90.3044 20.8677 90.9783 42.1218 92.3261 45.5499C93.6739 48.978 95.0217 61.319 97.0435 70.232C98.6609 77.3624 104.906 89.2007 107.826 94.2285C113.217 100.628 124 114.111 124 116.854C124 120.282 118.609 146.335 114.565 156.619C110.522 166.904 109.174 182.673 109.174 187.472C109.174 191.312 102.884 215.582 99.7391 227.238C94.3478 227.695 83.1609 230.666 81.5435 238.893L81.4972 239.129C79.4103 249.749 71.9927 287.5 56.6087 277.973C44.2087 270.294 13.7029 201.184 0 167.589C1.12319 127.824 4.98696 48.4295 11.4565 48.978Z" fill="url(#paint0_radial_5675_5)"/>
</g>
<path d="M38.5 121C38 117 32.5 118 32 119.5C31.5 121 29.5 164.5 30.5 165C31.5 165.5 35 156 35.5 154C36 152 39 125 38.5 121Z" fill="url(#paint1_linear_5675_5)"/>
<path d="M29 215.5L30 226.5L4 171.5L4.5 166.5L9.5 168L29 215.5Z" fill="url(#paint2_linear_5675_5)"/>
<path d="M39 235.5H34.5L36.5 246L55 272.5H61L63 270L62 259L57.5 249L45.5 242L39 235.5Z" fill="url(#paint3_linear_5675_5)"/>
<path d="M94.5 149C91 151.5 84 153 81.5 153C79 153 87.5 157.5 87.5 157.5C87.5 157.5 106 172 108 171.5C110 171 112 129.5 110.5 128.5C109 127.5 98 146.5 94.5 149Z" fill="url(#paint4_linear_5675_5)"/>
<path d="M108 175C107.5 173.5 86.5 158 83.5 158.5C80.5 159 78 154.5 77.5 158.5C77 162.5 71.5 207 78.5 216C85.5 225 93 216 93 216C93 216 98.5 211 100 207.5C101.5 204 106 190 107 186C108 182 108.5 176.5 108 175Z" fill="url(#paint5_linear_5675_5)"/>
<path d="M74 217C68.5 214 56 215 54 217C52 219 55.5 235.5 57 239.5C58.5 243.5 62 247 63 249C64 251 64.5 266.5 66 268.5C67.4999 270.5 72.9999 260 74 257C75 254 75 249 75 249L80 230.5C80 230.5 79.5 220 74 217Z" fill="url(#paint6_linear_5675_5)"/>
<path d="M10 152L6 125L4.5 130L3 161.5L6.5 163.5L10 162V152Z" fill="url(#paint7_linear_5675_5)"/>
<path d="M27 195C26 193 20.5 183 20 180C19.5 177 32 194 32 194C32 194 48 218 49 220.5C49.9999 223 51.4999 235.5 52 239.5C52.5 243.5 32.9999 220.5 32 218C31 215.5 27.9999 197 27 195Z" fill="url(#paint8_linear_5675_5)"/>
<path d="M76 154C76 152.5 66 139 65 138C64 137 63 137.5 62.5 138C62.253 138.247 52.324 155.5 48.9999 161C45.6759 166.5 34 185.5 34 185.5C34 185.5 31 189 32.5 191C34 193 45.5 210 49 211.5C52.5 213 65 212.5 67 211.5C69 210.5 72 206.5 73 204C74 201.5 76 155.5 76 154Z" fill="url(#paint9_linear_5675_5)"/>
<path d="M89 138.5C91.5 132.5 92.5 108.5 94 108.5C95.5 108.5 108.5 126 108.5 127.5C108.5 129 96 145.5 94 148C92 150.5 80.5 153 80 151.5C79.5 150 86.5 144.5 89 138.5Z" fill="url(#paint10_linear_5675_5)"/>
<path d="M95.9999 102C96.9999 100 104.5 93 104.5 91.5C104.5 90 120.5 113 119.5 116C118.5 119 112 126.5 110 125.5C108 124.5 95.9999 110 95.4999 107C94.9999 104 94.9999 104 95.9999 102L95.9999 102Z" fill="url(#paint11_linear_5675_5)"/>
<path d="M7 109.5C7 109.5 7.5 63.4999 12 67.4999C16.5 71.4999 19 70.9999 18.5 72.4999C18 73.9999 15.9716 115.546 15.5 115.5L11 128L7 109.5Z" fill="url(#paint12_linear_5675_5)"/>
<path d="M54 21.5L70.5 25.5C70.5 25.5 48.25 44.5 45 47.5C41.75 50.5 20 67.5 20 67.5L12.5 63.5L11.5 59.5L54 21.5Z" fill="url(#paint13_linear_5675_5)"/>
<path d="M33.5001 88.5C32.5001 94 31.5001 115.5 32.0001 116.5C32.5001 117.5 38.5001 117 39.5001 118C40.5001 119 61.5001 92.5 61.5001 92.5C61.5001 92.5 62.0001 61.5 62.0001 60.5C62.0001 59.5 62.0001 56.5 60.0001 55.5C58.0001 54.5 37.5001 76.5 36.5001 77.5C35.5001 78.5 34.5001 83 33.5001 88.5Z" fill="url(#paint14_linear_5675_5)"/>
<path d="M85 34C83.5 34.5 82.5 34.9999 82 38.4999C81.5 41.9999 85.4999 63.5 86.5 83.4999C87.5 103.5 93.4999 107 94.4999 103.5C95.4999 100 104.5 92.5 103.5 89.5C102.5 86.5 95.7957 72.5 94.4999 66.5C93.2041 60.5 89.5343 38.5687 88.9999 37.4999C87.9999 35.4999 86.5 33.5 85 34Z" fill="url(#paint15_linear_5675_5)"/>
<path d="M24.5 66.5C24.5 66.5 71 26 71.5 26C72 26 76.5 28.5 78.5 31.5C80.5 34.5 77 38 77 38L41.5 71L32 82L24.5 71V66.5Z" fill="url(#paint16_linear_5675_5)"/>
<path d="M66.5 63C70 49 78 38 79.5 39.5C81 41 83 84.5 83.5 89C84 93.5 90 106.5 91 109.5C92 112.5 89.5 129.5 89.5 129.5C89.5 129.5 84.5 144 79.5 149C74.5 154 68.5 141 65 129.5C61.5 118 63 77 66.5 63Z" fill="url(#paint17_linear_5675_5)"/>
<path d="M40 119.5C40.5 119 60.5 93.5 61.5 96C62.5 98.5 60.5 137.5 60.5 137.5C60.5 137.5 34.5 186 31.5 184.5C28.5 183 29 167.5 31 166.5C33 165.5 36.5 155.5 37 153.5C37.5 151.5 39.5 120 40 119.5Z" fill="url(#paint18_linear_5675_5)"/>
<path d="M31.5 84.5C30 80.5 23.4181 72.5328 21 73.5C18.5819 74.4673 18.5 81.5 18.5 81.5L17 140.5L12 152.5V162L28 180C28 180 33 88.5 31.5 84.5Z" fill="url(#paint19_linear_5675_5)"/>
<path d="M74.5 4L55 20.5C55 20.5 68.5 24 71.5 25C74.5 26 81 15 81 10.5C81 6 79.5 5.5 79.5 5.5L74.5 4Z" fill="url(#paint20_linear_5675_5)"/>
<path d="M73.4999 25.3333C75.9999 25.1666 82.5 10.5 82.4999 11.3333C82.4999 12.1666 87.5 24.9999 87.5 24.9999L80.5 29.9999C80.5 29.9999 71 25.4999 73.4999 25.3333Z" fill="url(#paint21_linear_5675_5)"/>
<path d="M31.7545 22.7898L35.3166 19.281M35.29 22.8165L31.7812 19.2544" stroke="white"/>
<path d="M87.7544 274.79L91.3165 271.281M91.2899 274.816L87.7811 271.254" stroke="white"/>
<path d="M135.755 92.7898L139.317 89.281M139.29 92.8165L135.781 89.2544" stroke="white"/>
<path d="M60.7544 152.79L64.3165 149.281M64.2899 152.816L60.7811 149.254" stroke="white"/>
<defs>
<filter id="filter0_i_5675_5" x="0" y="0" width="125" height="280.5" filterUnits="userSpaceOnUse" color-interpolation-filters="sRGB">
<feFlood flood-opacity="0" result="BackgroundImageFix"/>
<feBlend mode="normal" in="SourceGraphic" in2="BackgroundImageFix" result="shape"/>
<feColorMatrix in="SourceAlpha" type="matrix" values="0 0 0 0 0 0 0 0 0 0 0 0 0 0 0 0 0 0 127 0" result="hardAlpha"/>
<feOffset dx="1" dy="1"/>
<feGaussianBlur stdDeviation="2"/>
<feComposite in2="hardAlpha" operator="arithmetic" k2="-1" k3="1"/>
<feColorMatrix type="matrix" values="0 0 0 0 0.100781 0 0 0 0 0.0276215 0 0 0 0 0.179167 0 0 0 0.41 0"/>
<feBlend mode="normal" in2="shape" result="effect1_innerShadow_5675_5"/>
</filter>
<radialGradient id="paint0_radial_5675_5" cx="0" cy="0" r="1" gradientUnits="userSpaceOnUse" gradientTransform="translate(62 196.5) rotate(84.3733) scale(101.991 126.269)">
<stop stop-color="#E6A6F5"/>
<stop offset="1" stop-color="white"/>
</radialGradient>
<linearGradient id="paint1_linear_5675_5" x1="31.4231" y1="160.61" x2="42.25" y2="159.488" gradientUnits="userSpaceOnUse">
<stop stop-color="#B38EC4"/>
<stop offset="1" stop-color="#C2B7CE"/>
</linearGradient>
<linearGradient id="paint2_linear_5675_5" x1="30" y1="220" x2="41.8251" y2="180.399" gradientUnits="userSpaceOnUse">
<stop stop-color="#8141AF"/>
<stop offset="1" stop-color="#8B61A3"/>
</linearGradient>
<linearGradient id="paint3_linear_5675_5" x1="63" y1="268" x2="62.7195" y2="238.753" gradientUnits="userSpaceOnUse">
<stop stop-color="#A05BC8"/>
<stop offset="1" stop-color="#64318E"/>
</linearGradient>
<linearGradient id="paint4_linear_5675_5" x1="90.5" y1="156.5" x2="109.032" y2="157.524" gradientUnits="userSpaceOnUse">
<stop stop-color="#CB8BE2"/>
<stop offset="0.458333" stop-color="#B856E1"/>
<stop offset="1" stop-color="#A272B0"/>
</linearGradient>
<linearGradient id="paint5_linear_5675_5" x1="84" y1="212" x2="113.343" y2="198.499" gradientUnits="userSpaceOnUse">
<stop stop-color="#DE9BFA"/>
<stop offset="1" stop-color="#BB8DD8"/>
</linearGradient>
<linearGradient id="paint6_linear_5675_5" x1="56.9999" y1="263.476" x2="89.7318" y2="253.845" gradientUnits="userSpaceOnUse">
<stop stop-color="#D288E1"/>
<stop offset="1" stop-color="#D98DEF"/>
</linearGradient>
<linearGradient id="paint7_linear_5675_5" x1="3.80769" y1="159.744" x2="13.2766" y2="158.741" gradientUnits="userSpaceOnUse">
<stop stop-color="#B085D5"/>
<stop offset="1" stop-color="#BCA1CC"/>
</linearGradient>
<linearGradient id="paint8_linear_5675_5" x1="51.9999" y1="233.5" x2="61.4098" y2="195.2" gradientUnits="userSpaceOnUse">
<stop stop-color="#D78AEE"/>
<stop offset="1" stop-color="#61248D"/>
</linearGradient>
<linearGradient id="paint9_linear_5675_5" x1="37.5192" y1="204.329" x2="90.6965" y2="185.988" gradientUnits="userSpaceOnUse">
<stop stop-color="#B15ADF"/>
<stop offset="1" stop-color="#8732B4"/>
</linearGradient>
<linearGradient id="paint10_linear_5675_5" x1="87" y1="149.5" x2="111.467" y2="142.354" gradientUnits="userSpaceOnUse">
<stop stop-color="#B55ED3"/>
<stop offset="1" stop-color="#9532B1"/>
</linearGradient>
<linearGradient id="paint11_linear_5675_5" x1="112" y1="121" x2="111.132" y2="97.5691" gradientUnits="userSpaceOnUse">
<stop stop-color="#9F69BC"/>
<stop offset="0.671814" stop-color="#9A7BB4"/>
<stop offset="0.973958" stop-color="#BDADDE"/>
</linearGradient>
<linearGradient id="paint12_linear_5675_5" x1="8.26923" y1="122.098" x2="23.149" y2="120.521" gradientUnits="userSpaceOnUse">
<stop stop-color="#C0A7CF"/>
<stop offset="1" stop-color="#A693B6"/>
</linearGradient>
<linearGradient id="paint13_linear_5675_5" x1="18.3077" y1="63.0122" x2="70.0847" y2="24.3103" gradientUnits="userSpaceOnUse">
<stop stop-color="#87519F"/>
<stop offset="0.557868" stop-color="#9053B2"/>
<stop offset="1" stop-color="#8652A0"/>
</linearGradient>
<linearGradient id="paint14_linear_5675_5" x1="33.5001" y1="117.5" x2="107.478" y2="69.6774" gradientUnits="userSpaceOnUse">
<stop stop-color="#8735A4"/>
<stop offset="0.462159" stop-color="#A46AB9"/>
</linearGradient>
<linearGradient id="paint15_linear_5675_5" x1="97.9999" y1="95" x2="108.423" y2="37.9632" gradientUnits="userSpaceOnUse">
<stop stop-color="#9F6AB0"/>
<stop offset="0.987" stop-color="#743F9B"/>
</linearGradient>
<linearGradient id="paint16_linear_5675_5" x1="36" y1="76" x2="85.0596" y2="52.5074" gradientUnits="userSpaceOnUse">
<stop stop-color="#6B2387"/>
<stop offset="1" stop-color="#360A57"/>
</linearGradient>
<linearGradient id="paint17_linear_5675_5" x1="78" y1="144.5" x2="108.526" y2="131.856" gradientUnits="userSpaceOnUse">
<stop stop-color="#AF43D7"/>
<stop offset="1" stop-color="#550387"/>
</linearGradient>
<linearGradient id="paint18_linear_5675_5" x1="34.9615" y1="175.866" x2="74.4569" y2="168.063" gradientUnits="userSpaceOnUse">
<stop stop-color="#CCACD5"/>
<stop offset="1" stop-color="#B985CA"/>
</linearGradient>
<linearGradient id="paint19_linear_5675_5" x1="21" y1="165.5" x2="43.9423" y2="160.261" gradientUnits="userSpaceOnUse">
<stop stop-color="#B162D7"/>
<stop offset="1" stop-color="#7316A3"/>
</linearGradient>
<linearGradient id="paint20_linear_5675_5" x1="58" y1="22.5" x2="81" y2="5.5" gradientUnits="userSpaceOnUse">
<stop stop-color="#8964A9"/>
<stop offset="1" stop-color="#755A8D"/>
</linearGradient>
<linearGradient id="paint21_linear_5675_5" x1="74.6731" y1="28.1463" x2="91.2321" y2="20.7817" gradientUnits="userSpaceOnUse">
<stop stop-color="#8964A9"/>
<stop offset="1" stop-color="#755A8D"/>
</linearGradient>
</defs>
</svg>
